<?xml version="1.0" encoding="UTF-8"?>
<svg width="204px" height="67px" viewBox="0 0 204 67" version="1.1" xmlns="http://www.w3.org/2000/svg" xmlns:xlink="http://www.w3.org/1999/xlink">
    <!-- Generator: Sketch 47.1 (45422) - http://www.bohemiancoding.com/sketch -->
    <title>Join</title>
    <desc>Created with Sketch.</desc>
    <defs></defs>
    <g id="Page-1" stroke="none" stroke-width="1" fill="none" fill-rule="evenodd">
        <g id="Join">
            <g id="curve" transform="translate(2.000000, 2.000000)" stroke="#000000" stroke-width="3">
                <path d="M0,-2.49630107e-15 C50,-1.81157059e-14 78.3333333,-1.81157059e-14 85,-2.49630107e-15 C95,1.8819981e-14 100,5 100,15 C100,21.6666667 100,33.3333333 100,50" id="Path"></path>
            </g>
            <g id="curve" transform="translate(152.000000, 27.000000) scale(-1, 1) translate(-152.000000, -27.000000) translate(102.000000, 2.000000)" stroke="#000000" stroke-width="3">
                <path d="M0,-2.49630107e-15 C50,-1.81157059e-14 78.3333333,-1.81157059e-14 85,-2.49630107e-15 C95,1.8819981e-14 100,5 100,15 C100,21.6666667 100,33.3333333 100,50" id="Path"></path>
            </g>
            <polygon id="Triangle" fill="#000000" transform="translate(102.000000, 59.500000) scale(1, -1) translate(-102.000000, -59.500000) " points="102 52 109.5 67 94.5 67"></polygon>
        </g>
    </g>
</svg>