<svg id="Layer_1" data-name="Layer 1" xmlns="http://www.w3.org/2000/svg" width="1105" height="146.33" viewBox="0 0 1105 146.33">
  <title>vis</title>
  <line x1="11.1" y1="63" x2="847.36" y2="63" fill="none" stroke="#000" stroke-miterlimit="10" stroke-width="2"/>
  <text transform="translate(143.9 20.15)" font-size="17.79" font-family="Myriad Pro" font-weight="700">F<tspan x="9.02" y="0">r</tspan><tspan x="15.64" y="0">equen</tspan><tspan x="65.79" y="0">c</tspan><tspan x="74.08" y="0">y </tspan><tspan x="0" y="17.35">P</tspan><tspan x="9.91" y="17.35">enaliz</tspan><tspan x="57.22" y="17.35">a</tspan><tspan x="66.47" y="17.35">tion</tspan></text>
  <text transform="translate(10 117.33)" font-size="15.56" fill="#707070" font-family="Myriad Pro"><tspan font-weight="700">W</tspan><tspan x="13.17" y="0" font-weight="700">eak Regulariz</tspan><tspan x="106.78" y="0" font-weight="700">a</tspan><tspan x="114.88" y="0" font-weight="700">tion </tspan><tspan x="146.1" y="0">a</tspan><tspan x="153.47" y="0">v</tspan><tspan x="160.81" y="0">oids misleading </tspan><tspan x="0" y="18.68">c</tspan><tspan x="6.88" y="18.68">o</tspan><tspan x="15.42" y="18.68">r</tspan><tspan x="20.58" y="18.68">r</tspan><tspan x="25.51" y="18.68">el</tspan><tspan x="36.98" y="18.68">a</tspan><tspan x="44.42" y="18.68">tion</tspan><tspan x="70.39" y="18.68">s</tspan><tspan x="76.39" y="18.68">, but less </tspan><tspan x="135.89" y="18.68">c</tspan><tspan x="142.76" y="18.68">onne</tspan><tspan x="176.38" y="18.68">c</tspan><tspan x="183.56" y="18.68">t</tspan><tspan x="188.61" y="18.68">ed </tspan><tspan x="208.49" y="18.68">t</tspan><tspan x="213.55" y="18.68">o </tspan><tspan x="225.39" y="18.68">r</tspan><tspan x="230.32" y="18.68">eal us</tspan><tspan x="267.33" y="18.68">e</tspan><tspan x="274.95" y="18.68">.</tspan></text>
  <text transform="translate(568 117.33)" font-size="15.56" fill="#707070" font-family="Myriad Pro"><tspan font-weight="700">S</tspan><tspan x="8.33" y="0" font-weight="700">t</tspan><tspan x="14.04" y="0" font-weight="700">r</tspan><tspan x="19.83" y="0" font-weight="700">ong Regulariz</tspan><tspan x="115.78" y="0" font-weight="700">a</tspan><tspan x="123.87" y="0" font-weight="700">tion </tspan><tspan x="155.09" y="0">g</tspan><tspan x="163.7" y="0">i</tspan><tspan x="167.34" y="0">v</tspan><tspan x="174.67" y="0">es mo</tspan><tspan x="213.46" y="0">r</tspan><tspan x="218.39" y="0">e </tspan><tspan x="229.49" y="0">r</tspan><tspan x="234.42" y="0">ealistic </tspan><tspan x="0" y="18.68">e</tspan><tspan x="7.75" y="18.68">xamples </tspan><tspan x="65.23" y="18.68">a</tspan><tspan x="72.67" y="18.68">t </tspan><tspan x="81.12" y="18.68">r</tspan><tspan x="86.27" y="18.68">isk of misleading </tspan><tspan x="197.88" y="18.68">c</tspan><tspan x="204.76" y="18.68">o</tspan><tspan x="213.3" y="18.68">r</tspan><tspan x="218.45" y="18.68">r</tspan><tspan x="223.39" y="18.68">el</tspan><tspan x="234.86" y="18.68">a</tspan><tspan x="242.3" y="18.68">tion</tspan><tspan x="268.27" y="18.68">s</tspan><tspan x="274.26" y="18.68">.</tspan></text>
  <text transform="translate(8.9 20.15)" font-size="17.79" font-family="Myriad Pro" font-weight="700">Nai<tspan x="26.54" y="0">v</tspan><tspan x="35.7" y="0">e</tspan><tspan x="0" y="17.35">O</tspan><tspan x="12.82" y="17.35">ptimiz</tspan><tspan x="63.38" y="17.35">a</tspan><tspan x="72.62" y="17.35">tion</tspan></text>
  <text transform="translate(287.9 20.15)" font-size="17.79" font-family="Myriad Pro" font-weight="700">T<tspan x="8.79" y="0">r</tspan><tspan x="15.35" y="0">ans</tspan><tspan x="42.88" y="0">f</tspan><tspan x="48.77" y="0">orm</tspan><tspan x="81.09" y="0">a</tspan><tspan x="90.34" y="0">tion</tspan><tspan x="0" y="17.35">Robustness</tspan></text>
  <text transform="translate(683.9 20.15)" font-size="17.79" font-family="Myriad Pro" font-weight="700">G<tspan x="12.24" y="0">ene</tspan><tspan x="41.44" y="0">r</tspan><tspan x="48.01" y="0">a</tspan><tspan x="57.26" y="0">ti</tspan><tspan x="68.66" y="0">v</tspan><tspan x="77.82" y="0">e</tspan><tspan x="0" y="17.35">Mo</tspan><tspan x="25.42" y="17.35">del </tspan><tspan x="53.9" y="17.35">P</tspan><tspan x="64.07" y="17.35">riors</tspan></text>
  <text transform="translate(815.1 20.15)" font-size="17.79" font-family="Myriad Pro" font-weight="700">D<tspan x="12.38" y="0">a</tspan><tspan x="21.63" y="0">taset</tspan><tspan x="0" y="17.35">Examples</tspan></text>
  <circle cx="11.1" cy="63" r="9"/>
  <circle cx="147.1" cy="63" r="9"/>
  <circle cx="289" cy="63" r="9"/>
  <circle cx="686.1" cy="63" r="9"/>
  <circle cx="848.1" cy="63" r="9"/>
  <polyline points="10 83.33 10 89.34 289 89.34 289 83.33" fill="none" stroke="#707070" stroke-miterlimit="10"/>
  <polyline points="685 83.33 685 89.34 847 89.34 847 83.33" fill="none" stroke="#707070" stroke-miterlimit="10"/>
</svg>
