<?xml version="1.0" encoding="UTF-8"?>
<svg width="71px" height="144px" viewBox="0 0 71 144" version="1.1" xmlns="http://www.w3.org/2000/svg" xmlns:xlink="http://www.w3.org/1999/xlink">
    <!-- Generator: Sketch 47 (45396) - http://www.bohemiancoding.com/sketch -->
    <title>objectives_logits</title>
    <desc>Created with Sketch.</desc>
    <defs></defs>
    <g id="Page-1-Copy" stroke="none" stroke-width="1" fill="none" fill-rule="evenodd">
        <g id="Artboard" transform="translate(-456.000000, -162.000000)">
            <g id="objectives_logits" transform="translate(457.000000, 162.000000)">
                <g>
                    <g id="Others" opacity="0.470335145" transform="translate(11.000000, 19.000000)" stroke="#979797" stroke-linecap="square" stroke-dasharray="1,2">
                        <path d="M50.6357143,86.5 L0.364285714,0.5" id="Line-3" opacity="0.427762681"></path>
                        <path d="M50.6357143,86.5 L0.364285714,33.5" id="Line-3-Copy" opacity="0.427762681"></path>
                        <path d="M50.6357143,86.5 L0.364285714,68.5" id="Line-3-Copy-2" opacity="0.427762681"></path>
                        <path d="M50.6357143,86.5 L0.364285714,103.5" id="Line-3-Copy-4" opacity="0.427762681"></path>
                        <g id="Group-2" transform="translate(25.500000, 52.000000) scale(1, -1) translate(-25.500000, -52.000000) " opacity="0.427762681">
                            <path d="M50.6357143,86.5 L0.364285714,0.5" id="Line-3-Copy-8"></path>
                            <path d="M50.6357143,86.5 L0.364285714,33.5" id="Line-3-Copy-7"></path>
                            <path d="M50.6357143,86.5 L0.364285714,68.5" id="Line-3-Copy-3"></path>
                            <path d="M50.6357143,86.5 L0.364285714,103.5" id="Line-3-Copy-6"></path>
                        </g>
                    </g>
                    <g id="To-Highlighted" opacity="0.495187953" transform="translate(11.000000, 19.000000)" stroke="#979797" stroke-linecap="square" stroke-dasharray="1,2">
                        <path d="M50.6357143,53.5 L0.364285714,0.5" id="Line-3-Copy"></path>
                        <path d="M50.6357143,53.5 L0.364285714,35.5" id="Line-3-Copy-2"></path>
                        <path d="M50.6357143,53.5 L0.364285714,70.5" id="Line-3-Copy-4"></path>
                        <path d="M49.6376812,53.5 L0.362318841,106.5" id="Line-3-Copy-5"></path>
                    </g>
                    <circle id="Oval-Copy" stroke="#D7D7D7" fill="#FFFFFF" cx="11" cy="19" r="11"></circle>
                    <circle id="Oval-Copy-9" fill="#D8D8D8" cx="59" cy="37" r="11"></circle>
                    <circle id="Oval-Copy-2" stroke="#D7D7D7" fill="#FFFFFF" cx="11" cy="54" r="11"></circle>
                    <circle id="Oval-Copy-10" fill="#F5A623" cx="59" cy="72" r="11"></circle>
                    <circle id="Oval-Copy-3" stroke="#D7D7D7" fill="#FFFFFF" cx="11" cy="89" r="11"></circle>
                    <circle id="Oval-Copy-11" fill="#D8D8D8" cx="59" cy="107" r="11"></circle>
                    <circle id="Oval-Copy-12" fill="#FFFFFF" cx="59" cy="133" r="11"></circle>
                    <circle id="Oval-Copy-13" fill="#FFFFFF" cx="59" cy="11" r="11"></circle>
                    <circle id="Oval-Copy-4" stroke="#D7D7D7" fill="#FFFFFF" cx="11" cy="124" r="11"></circle>
                </g>
            </g>
        </g>
    </g>
</svg>